<svg xmlns="http://www.w3.org/2000/svg" viewBox="0 0 650.331 664"><defs><style>.a{fill:#46235b;}.b{fill:#2c163a;}.c{fill-rule:evenodd;}</style></defs><path class="a" d="M0,0S6.323,32.358,4.463,50.025c-1.86,17.76,17.109,13.948,25.385,14.6,2.511.186,5.951,3.347,10.321,8.276,5.858,6.509,13.39,15.993,22.688,25.385a134.117,134.117,0,0,0,22.781,18.969c29.1,19.062,10.786,5.672,9.484,24.734s29.755,19.62,51.978,34.869,14.6,17.109,17.76,34.218,2.511,30.406,11.437,51.978c8.833,21.572,39.332,8.833,57.65,37.38,18.411,28.546,12.646,49.468,25.943,69.738s40.541,22.223,50.676,31.708S335.3,439.908,335.3,450.694s13.948,72.9,25.385,82.384,19.62,38.681,20.271,58.952-5.672,45-48.166,41.843C296.9,631.177,313.543,645.682,311.5,664H650.238V0ZM99.493,108.327c-1.3,8.833-15.249-5.672-29.1-13.948a35.822,35.822,0,0,1-4.556-3.254,34.442,34.442,0,0,1-8.555-11.716c-2.046-4.184-3.44-8.276-5.3-11.437a7.756,7.756,0,0,0-.744-1.116,10.151,10.151,0,0,0-1.209-1.581C44.353,58.952,38.588,53.28,27.244,49.468s-3.161-17.109-8.183-24.083a216.722,216.722,0,0,0,25.292,7.532c1.3.279,2.6.558,3.812.744a17.062,17.062,0,0,1,4.277,1.116c10.414,3.812,20.457,15.063,34.4,31.8a75.963,75.963,0,0,1,5.765,7.811,49.87,49.87,0,0,1,5.579,11.53C101.353,95.309,100.237,102.84,99.493,108.327Zm95.681,150.82c-5.021-5.114-6.974-5.672-10.135-30.406s-1.86-52.629-10.786-63.322c-8.833-10.786-24.083-26.593-21.572-27.244s27.244,6.323,34.218,20.271S176.763,174.9,194.523,202.8s10.786,17.76,20.271,45.655c9.112,26.593,16.923,33.567,17.667,34.218ZM299.781,374.54c-7.625-6.974-24.083-12.646-25.943-27.244s3.812-25.385,0-42.494-3.161-26.593,7.625-17.76,22.223,15.249,28.546,40.541c6.323,25.385,6.323,48.166,16.458,62.764,9.949,14.32,17.481,32.358,17.76,32.916Z"/><g transform="translate(64.81)"><path class="b" d="M655.221,0V663.907H381.662c2.139-2.7,4.277-5.579,6.509-8.369,10.693-14.041,48.445-27.9,47.329-41.936-.93-11.995,1.674-40.634,3.161-58.115.279-2.975.465-5.579.651-7.811a11.785,11.785,0,0,0-.465-3.905c-3.626-13.39-26.315-36.45-38.124-51.885-2.975-3.905-5.3-7.439-6.323-10.042-1.581-4-2.511-12.646-2.975-23.339h0c-1.116-26.5.372-65.368-.465-77.828-1.116-17.388-20.828-35.427-28.639-57.371-7.9-21.944-11.251-46.678-16.83-59.6s-1.674-30.313,3.347-50.025-4.463-29.2-13.483-40.448-37.659-11.251-44.911-19.062c-7.346-7.9-14.041,6.695-28.081,7.346-14.041.558-18.5-5.021-26.965-7.346-8.462-2.232-11.251,1.116-8.462-2.232s9.019-5.021,21.386.558c12.367,5.672,10.135,2.79,20.271,2.232s7.9-6.23,5.579-10.693c-2.232-4.463-22.5,0-31.429-.558s-7.9-6.23-7.9-6.23,1.116,6.695,19.62,3.905,19.62-1.674,26.408-3.905c6.695-2.232,17.946,5.672,31.987,14.6,14.041,9.019,19.62,1.674,15.156-6.23s1.674-16.83,1.116-23.06c-.186-1.674-.372-3.533-.744-5.393a27.082,27.082,0,0,0-9.949-16.458c-.279-.186-.465-.372-.744-.558-2.79-2.325-5.579-4.835-8.09-7.346-5.207-5.3-9.112-10.879-9.112-15.714,0-4.556-5.486-9.763-12.646-13.948a65.485,65.485,0,0,0-14.32-6.23C260.6,53,262.27,61.37,260.039,74.852s-15.714,18.039-29.755,20.828-6.695,1.116-20.828,6.23c-14.041,5.021-24.734-18.6-35.985-29.2C162.219,62.02,146.5,70.482,131.349,68.25A21.208,21.208,0,0,1,113.4,52.536s4.463,2.79,14.041,7.9,12.925,3.905,21.944,4.463,16.272-.558,29.2,0,9.019,5.579,17.388,15.714,11.251,2.79,21.944,2.79,6.695-2.79,6.137-5.579-14.6-8.462-26.965-12.925-9.019-6.695-19.062-9.019a177.183,177.183,0,0,1-27.523-7.9c-10.693-3.905-8.462-6.788-14.6-15.714-6.137-9.019-7.9-5.021-18.5-7.346s-12.925-2.232-17.946-9.577S79.184,6.323,69.7,2.418l59.51-.372c5.114,5.486,12.181,14.97,21.386,22.781,11.809,10.135,29.755,15.156,39.89,19.713C200.622,49,232.608,61.927,234.84,61.927c0,0-10.693-20.271-19.062-25.292-5.579-3.347-6.695-21.851-7.811-35.055h7.9l30.685-.093,33.009-.093L295.652,1.3l19.155-.093L388.357.93,434.849.744,509.608.465,543.826.372,655.035,0Z" transform="translate(-69.7)"/></g><g transform="translate(32.266)"><g transform="translate(177.135)"><path d="M553.9,0a5.522,5.522,0,0,0,.744.372c2.232,1.116,4.835,2.511,7.9,4,14.32,7.16,24.083,15.156,20.549,23.246s-24.083,11.623-30.313,6.23-6.23-14.32-16.923-21.479C527.12,6.6,524.888,3.719,520.611.465c-.186-.186-.465-.279-.651-.465H445.665c.093.279.093.465.186.744,1.023,4.556,2.975,8.741,8.833,11.623,12.553,6.23,16.086,17.853,15.156,25.943-.837,8-9.856,18.783-20.549,10.693-10.693-8-18.783-16.923-32.173-25.943-8.276-5.579-13.576-14.506-17.76-22.223-.186-.279-.279-.558-.465-.837H325.158c.186.372.465.744.651,1.116,4.928,8.648,11.437,18.5,19.9,25.571,16.086,13.39,16.086,17.016,30.406,20.55,14.32,3.626,19.62,9.856,29.476,12.553s20.55,25.85,25.943,34.869c5.393,8.926,50.862,30.313,9.856,27.709s-59.789.93-66.112-8.926c-6.23-9.856-11.623-28.546-13.39-41.1s-2.7-22.316-9.856-31.243-23.246-16.086-33.009-24.083c-4.742-3.905-8.276-9.949-12.274-15.714A13.6,13.6,0,0,1,305.91.093H289.173c.465.372,1.023.837,1.488,1.209A80.623,80.623,0,0,1,297.635,8c8,8.926,5.393,16.923,2.7,17.853s-17.388-5.393-31.615-11.623c-9.67-4.184-9.112-8.09-11.344-12.832-.186-.465-.465-.93-.651-1.3H225.2c.465.465,1.023.93,1.488,1.395,11.623,11.158,34.776,32.266,46.492,36.822,8.833,3.44,18.5,14.506,25.571,24.734,5.765,8.369,9.763,16.272,10.135,19.062.279,1.953,3.161,6.416,7.439,11.623,2.046,2.511,4.277,5.207,6.788,7.9a148.363,148.363,0,0,0,16.272,15.528,38.278,38.278,0,0,0,9.763,6.044c10.135,3.626,42.866,8.462,57.092,16.365,3.254,1.767,5.486,3.812,6.323,5.951,4.463,11.623,9.856,47.329,13.39,58.022a42.393,42.393,0,0,0,3.254,6.695h0c7.811,13.576,25.757,36.171,32.451,40.634,8,5.393,22.316,45.562,19.62,58.022s-9.856,5.393-14.32.93,3.533-10.693-12.553-28.546-13.39-7.16-7.16,0,14.32,20.549,14.32,31.243,10.693,18.783,17.853,31.243c7.16,12.553-1.767,33.009,31.243,36.636,1.674.186,3.44.372,5.114.465,2.79.279,5.672.465,8.462.744,29.383,2.325,58.952,3.719,60.533,23.8,1.767,23.246,11.623,76.8,4.463,91.125-6.974,13.948-22.409,34.683-26.5,57.185l-.279,1.674c-1.023,6.416-.651,13.018-.186,19.155,1.209,15.993,3.533,29.662-13.2,33.567-23.246,5.393-16.086,33.939-46.4,42.866a288.358,288.358,0,0,0-34.311,12.925H666.131V0ZM327.576,90.1c-14.32-9.856-13.39-26.779-17.853-33.939s-2.7-16.086,18.783-13.39a48.054,48.054,0,0,1,18.783,30.406c3.533,20.55,3.533,33.939,3.533,33.939S341.9,99.958,327.576,90.1Zm155.47,147.38c-12.553-9.856-23.246-22.316-28.546-36.636-5.393-14.32-2.7-26.779-4.463-40.169s-17.853-16.923-17.853-16.923,20.55-5.393,30.406-2.7,19.62,14.32,21.386,31.243C485.649,189.223,483.045,237.482,483.045,237.482ZM490.112,3.44c23.246,3.533,33.939,19.62,50.955,26.779,16.923,7.16,0,17.853-22.316,9.856s-8.926-2.7-11.623-9.856c0,0-2.7,0-8.926-4.463S466.959-.093,490.112,3.44Zm5.393,99.121c-6.23-17.853,8.926-30.313,14.32-40.169,0,0,16.086-2.7,39.332,2.7s-4.463,15.156-3.533,37.473,24.083,29.476,25.013,49.1-25.013,5.393-32.172-2.7c-7.16-8-15.156-27.709-30.406-30.313C492.808,115.951,501.735,120.414,495.505,102.562ZM615.176,380.305c0,4.463-23.246-15.156-28.546-26.779a64.131,64.131,0,0,0-40.169-34.869c-23.246-7.16-22.316-23.246-29.476-33.009-7.16-9.856-15.156-33.939-15.156-42.866s2.7-33.939,4.463-25.013,19.62,17.853,36.636,23.246a217.78,217.78,0,0,1,49.1,13.39C618.8,265.1,618.8,278.488,610.805,309.73,602.716,341.066,615.176,375.842,615.176,380.305ZM613.409,170.44c-18.783,25.013-20.549,16.086-23.246,16.923-2.7.93-8.09-29.476-8.926-45.562-.93-16.086-10.693-19.62-19.62-34.869-8.926-15.156,14.32-26.779,17.853-35.706,0,0,16.086-2.7,31.243,0S632.192,96.239,634.8,108.7C637.492,121.344,632.192,145.427,613.409,170.44Z" transform="translate(-225.2)"/><path d="M418.081,141.5s4.37,43.889-1.3,56.534c-5.672,12.553-16.923,61.463-10.042,70.3s20.085,49,27.616,62.764c7.532,13.855,16.272,57.743,11.9,67.135s1.3,59.6,23.246,81.64c21.944,21.944,61.556,23.9,64.624,39.518,3.161,15.714,6.323,49,6.323,49s-11.9-10.693,3.161.651,37.008,17.574,40.82,18.225c3.719.651,13.2-18.783,13.2-18.783s-38.96-6.323-40.82-13.855-3.719-29.476-1.86-36.357,20.085-23.246,21.293-42.029c1.209-18.876-10.042-53.373-11.9-54.582s-20.735-5.672-24.455-8.833-3.161-40.82-3.161-40.82l-6.881.651s-3.812,38.96-.651,45.841,15.714,1.209,18.876,22.6c3.161,21.293,1.86,44.539-5.021,43.331-6.881-1.3-35.8-20.735-48.352-28.918s-26.315-46.4-21.386-53.931c5.021-7.532,5.021-47.7-3.161-50.862s-25.106-43.331-31.429-51.513-21.386-16.923-13.2-27.616S443.745,215.7,444.4,200.638s-8.183-53.373-10.042-54.582C432.494,144.661,418.081,141.5,418.081,141.5Z" transform="translate(-237.785 -9.927)"/><path class="c" d="M552.283,596.081s-16.644,30.964-27.9,29.011-22.6-6.323-33.381-11.716-30.5-24.92-42.215-23.432A122.744,122.744,0,0,1,416.9,589.2c-6.323-1.116-26.965-8.926-11.809-12.367s17.2-2.511,36.264.93c19.155,3.347,32.358,6.323,48.166,16.551,15.714,10.228,21.665,20.549,28.453,16.644,6.881-3.905,6.788-3.44.651-14.691s-22.409-25.478-31.708-31.336-17.388-23.153-4.277-16.737,35.241,38.216,42.122,41.657,19.155-4,22.5-10.879C550.8,572.091,552.283,596.081,552.283,596.081Z" transform="translate(-237.439 -38.362)"/></g><path d="M308.073,92.426s-53.466,13.018-74.945,18.5-74.48,5.486-78.944-1.023-11.995-18.969-29.011-23.99S67.244,62.95,63.153,56.441c-4-6.416-17.016-48.91-17.016-48.91L44.649,0H34.7s6.509,18.5,10.507,28.453c4,10.042,6.044,22.967,10.507,30.5s21.479,26.5,37.008,26.5,33.939,5.021,39.983,13.948c5.951,9.019-.465,19.527,15.528,21.479,15.993,2.046,51.513-5.486,51.978,0s-8,22.037-6.509,23.99,6.974-4.463,9.019-9.484-6.044-13.483,6.509-13.483,38.5-6.974,46.027-5.021,9.949-3.533,20.456-5.951c10.507-2.511,40.262-11.065,40.262-11.065Z" transform="translate(-34.7)"/><path class="c" d="M50.18,72.628a28.91,28.91,0,0,1,11.809-.558c6.509,1.3,7.346,2.325,5.114,2.139s-5.3-1.581-9.484-1.395a55.179,55.179,0,0,0-5.579.465C49.064,84.065,62.454,82.856,70.822,90.76c-2.883,9.484-7.439,7.9-4.091,18.783-8.183,4.556-16.179,3.068-13.762,16.551a39.965,39.965,0,0,1-6.509-2.7,49.111,49.111,0,0,0,2.6,12.925C38.65,122.654,33.257,74.116,50.18,72.628Z" transform="translate(-35.023 -5.029)"/><path class="c" d="M465.76,485.88c-.837-.744-9.3,1.488-11.809,1.488-1.674,0-8.09,3.533-12.274,5.858a108.725,108.725,0,0,0-14.691-8.09c-6.323-2.6-13.669,1.674-13.669,1.674s5.672,5.207,5.207,7.718c-.372,2.511-8.555-4.742-8.555-4.742A233.8,233.8,0,0,0,391.93,510.8c-8.09,10.879-16.83,28.546-16.83,28.546s11.437-6.974,20.735-9.949,13.762-.744,13.762-.744,6.044-13.948,6.788-11.623-1.674,12.646-1.674,12.646a114.891,114.891,0,0,0,18.6-11.716c6.416-4.928,8-14.692,8.462-20.364l10.693-6.788s14.041-1.116,15.156-1.3C468.735,489.507,466.6,486.624,465.76,485.88Z" transform="translate(-58.582 -33.977)"/></g></svg>