<svg xmlns="http://www.w3.org/2000/svg" xmlns:xlink="http://www.w3.org/1999/xlink" width="161" height="64" viewBox="0 0 161 64"><defs><style>.a{fill:#fff;opacity:0.499;}.b{clip-path:url(#a);}.c{fill:#ff5252;}.d,.e{stroke:none;}.e{fill:#ffc400;}</style><clipPath id="a"><rect class="a" width="161" height="64" transform="translate(719 365)"/></clipPath></defs><g class="b" transform="translate(-719 -365)"><g class="c" transform="translate(719 319)"><path class="d" d="M 64.12188720703125 149.3099365234375 L 62.06393432617188 120.0251541137695 L 61.81915283203125 116.542106628418 L 58.9385871887207 118.5153503417969 L 34.61848068237305 135.1749114990234 L 45.5407600402832 107.9233703613281 L 46.84654235839844 104.6654357910156 L 43.37806701660156 105.2029113769531 L 14.2155590057373 109.7218933105469 L 35.93997955322266 89.89110565185547 L 38.54306411743164 87.51491546630859 L 35.16815185546875 86.49889373779297 L 6.937788486480713 77.99997711181641 L 35.16815185546875 69.50108337402344 L 38.54306411743164 68.48506164550781 L 35.93997955322266 66.10887145996094 L 14.21557521820068 46.2780647277832 L 43.37808609008789 50.79706573486328 L 46.84656524658203 51.33454513549805 L 45.5407829284668 48.07661056518555 L 34.61852264404297 20.8250732421875 L 58.9386100769043 37.48465347290039 L 61.81917572021484 39.45788955688477 L 62.06395721435547 35.97484970092773 L 64.12192535400391 6.690066337585449 L 78.76558685302734 32.19582748413086 L 80.50004577636719 35.21684646606445 L 82.2344970703125 32.19582748413086 L 96.87812805175781 6.690103054046631 L 98.93606567382812 35.97486877441406 L 99.18082427978516 39.45791244506836 L 102.0614166259766 37.48467254638672 L 126.3815002441406 20.82511329650879 L 115.4592361450195 48.07662963867188 L 114.1534576416016 51.33456420898438 L 117.6219329833984 50.79708862304688 L 146.784423828125 46.27810287475586 L 125.0600433349609 66.10889434814453 L 122.4569549560547 68.48508453369141 L 125.8318710327148 69.50110626220703 L 154.0622100830078 78 L 125.8318710327148 86.49889373779297 L 122.4569549560547 87.51491546630859 L 125.0600433349609 89.89110565185547 L 146.7844390869141 109.7218933105469 L 117.6219329833984 105.2028884887695 L 114.1534576416016 104.665412902832 L 115.4592361450195 107.9233474731445 L 126.3815231323242 135.1748962402344 L 102.0614166259766 118.5153503417969 L 99.18082427978516 116.542106628418 L 98.93606567382812 120.0251541137695 L 96.87814331054688 149.3099365234375 L 82.23445892333984 123.80419921875 L 80.5 120.7831726074219 L 78.76554107666016 123.80419921875 L 64.12188720703125 149.3099365234375 Z"/><path class="e" d="M 65.65671539306641 13.38015747070312 L 64.05904388427734 36.11505126953125 L 63.56950378417969 43.08111572265625 L 57.80833435058594 39.1346435546875 L 38.92795562744141 26.20135498046875 L 47.397216796875 47.33257293701172 L 50.00873565673828 53.84842681884766 L 43.07180786132812 52.77349853515625 L 20.4591064453125 49.26945495605469 L 37.288330078125 64.63175964355469 L 42.49449920654297 69.38411712646484 L 35.74468994140625 71.41619110107422 L 13.87564086914062 77.99997711181641 L 35.74468994140625 84.58378601074219 L 42.49449920654297 86.61585998535156 L 37.288330078125 91.36821746826172 L 20.45909118652344 106.7305221557617 L 43.07180786132812 103.2264709472656 L 50.00875854492188 102.1515502929688 L 47.397216796875 108.6674041748047 L 38.92791748046875 129.7986450195312 L 57.80833435058594 116.8653564453125 L 63.56950378417969 112.9188995361328 L 64.05902099609375 119.8849487304688 L 65.65667724609375 142.6198272705078 L 77.03107452392578 122.8083801269531 L 80.5 116.766357421875 L 83.96892547607422 122.8083801269531 L 95.34334564208984 142.6198425292969 L 96.94100189208984 119.8849334716797 L 97.43052673339844 112.9188537597656 L 103.1917114257812 116.8653335571289 L 122.0720825195312 129.7985992431641 L 113.6028137207031 108.6674041748047 L 110.9912872314453 102.1515502929688 L 117.9282150268555 103.2264709472656 L 140.5408935546875 106.7305221557617 L 123.711669921875 91.36821746826172 L 118.505500793457 86.61585998535156 L 125.2553100585938 84.58378601074219 L 147.1243438720703 78 L 125.2553100585938 71.41621398925781 L 118.505500793457 69.38414001464844 L 123.711669921875 64.63178253173828 L 140.5408935546875 49.26947021484375 L 117.9282150268555 52.77349853515625 L 110.9912872314453 53.84842681884766 L 113.6028137207031 47.33257293701172 L 122.0720672607422 26.20137023925781 L 103.1916961669922 39.13466644287109 L 97.43049621582031 43.08114624023438 L 96.94097900390625 36.11507415771484 L 95.34332275390625 13.38020324707031 L 83.96897888183594 33.19161987304688 L 80.50004577636719 39.23366546630859 L 77.03112030029297 33.19161987304688 L 65.65671539306641 13.38015747070312 M 62.58712005615234 0 L 80.50004577636719 31.19999694824219 L 98.41293334960938 3.0517578125e-05 L 100.9311447143555 35.83466339111328 L 130.6909027099609 15.4488525390625 L 117.3156890869141 48.82066345214844 L 153.0279693603516 43.28673553466797 L 126.4084014892578 67.58602142333984 L 161 78 L 126.4084014892578 88.41397857666016 L 153.0279998779297 112.7132568359375 L 117.3156890869141 107.1793060302734 L 130.6909332275391 140.5511169433594 L 100.9311676025391 120.1653289794922 L 98.41294860839844 156 L 80.5 124.8000030517578 L 62.58707427978516 156 L 60.06885528564453 120.1653594970703 L 30.30906677246094 140.5511474609375 L 43.68433380126953 107.1793060302734 L 7.972000122070312 112.7132568359375 L 34.59159851074219 88.41397857666016 L 0 77.99997711181641 L 34.59159851074219 67.58599853515625 L 7.972030639648438 43.28671264648438 L 43.68433380126953 48.82066345214844 L 30.30911254882812 15.44883728027344 L 60.06887817382812 35.83464050292969 L 62.58712005615234 0 Z"/></g></g></svg>