<svg xmlns="http://www.w3.org/2000/svg" xmlns:xlink="http://www.w3.org/1999/xlink" width="75" height="75" viewBox="0 0 75 75"><defs><style>.a{fill:none;}.b{clip-path:url(#a);}.c{stroke:#89a7d6;stroke-width:2px;fill:url(#b);}.d{fill:url(#c);}.e{fill:red;}.f{stroke:none;}</style><clipPath id="a"><rect class="a" width="75" height="75"/></clipPath><radialGradient id="b" cx="0.5" cy="0.5" r="0.5" gradientUnits="objectBoundingBox"><stop offset="0" stop-color="#6672a5"/><stop offset="1"/></radialGradient><radialGradient id="c" cx="0.5" cy="0.5" r="0.641" gradientTransform="matrix(0.644, -0.675, 0.588, 0.738, -0.116, 0.468)" gradientUnits="objectBoundingBox"><stop offset="0" stop-color="#b4d1ff"/><stop offset="1" stop-color="#4d6ea0"/></radialGradient></defs><g transform="translate(-448 -598)"><g class="b" transform="translate(448 598)"><g class="c"><circle class="f" cx="37.5" cy="37.5" r="37.5"/><circle class="a" cx="37.5" cy="37.5" r="36.5"/></g><path class="d" d="M48.57,38.081l-1.722-1.727a1.716,1.716,0,0,0-2.394,0l-5.546-8.687L42.42,24.15a1.537,1.537,0,0,0,.355-2.082L40.4,19.69a1.549,1.549,0,0,0-2.087.35l-1.181,1.187a7.723,7.723,0,0,1-1.319,4.99L30.475,19.07l10.9-8.142L42.775,0,31.847,1.4l-7.31,9.763L17.227,1.4,6.3,0,7.7,10.928,18.6,19.07l-5.355,7.146a7.723,7.723,0,0,1-1.319-4.99l-1.187-1.187a1.541,1.541,0,0,0-2.082-.35L6.278,22.068a1.542,1.542,0,0,0,.35,2.082l3.517,3.517L4.62,36.333a1.716,1.716,0,0,0-2.394,0L.5,38.081A1.722,1.722,0,0,0,.5,40.5l1.769,1.775a1.732,1.732,0,0,0,2.426,0L6.415,40.55a1.716,1.716,0,0,0,.026-2.41l8.666-5.53,3.517,3.512a1.537,1.537,0,0,0,2.082.355L23.086,34.1a1.538,1.538,0,0,0-.355-2.082l-1.181-1.187a7.718,7.718,0,0,1-4.99-1.319l7.978-5.975,7.978,5.975a7.723,7.723,0,0,1-4.969,1.319l-1.187,1.187a1.541,1.541,0,0,0-.35,2.082l2.378,2.378a1.538,1.538,0,0,0,2.082-.355l3.517-3.512,8.645,5.53a1.716,1.716,0,0,0,0,2.394l1.727,1.727a1.722,1.722,0,0,0,2.421,0l1.769-1.775A1.716,1.716,0,0,0,48.57,38.081Z" transform="translate(12.856 17.143)"/></g><rect class="e" width="7.466" height="87.103" rx="3.733" transform="translate(513.656 602.065) rotate(45)"/></g></svg>