<svg xmlns="http://www.w3.org/2000/svg" width="23.468" height="24" viewBox="0 0 23.468 24"><defs><style>.a{fill:#454545;}</style></defs><g transform="translate(0)"><path class="a" d="M119.527,258.7a.454.454,0,0,0-.454-.454h-1.584a.454.454,0,0,0-.454.454v1.584a.454.454,0,0,0,.454.454h1.584a.454.454,0,0,0,.454-.454V258.7Z" transform="translate(-111.414 -245.245)"/><path class="a" d="M216.162,258.7a.454.454,0,0,0-.454-.454h-1.584a.454.454,0,0,0-.454.454v1.584a.454.454,0,0,0,.454.454h1.584a.454.454,0,0,0,.454-.454Z" transform="translate(-203.182 -245.245)"/><path class="a" d="M312.79,258.7a.454.454,0,0,0-.454-.454h-1.584a.454.454,0,0,0-.454.454v1.584a.454.454,0,0,0,.454.454h1.584a.454.454,0,0,0,.454-.454Z" transform="translate(-294.944 -245.245)"/><path class="a" d="M119.527,355.329a.454.454,0,0,0-.454-.454h-1.584a.454.454,0,0,0-.454.454v1.584a.454.454,0,0,0,.454.454h1.584a.454.454,0,0,0,.454-.454v-1.584Z" transform="translate(-111.414 -336.336)"/><path class="a" d="M216.162,355.329a.454.454,0,0,0-.454-.454h-1.584a.454.454,0,0,0-.454.454v1.584a.454.454,0,0,0,.454.454h1.584a.454.454,0,0,0,.454-.454Z" transform="translate(-203.182 -336.336)"/><path class="a" d="M312.79,355.329a.454.454,0,0,0-.454-.454h-1.584a.454.454,0,0,0-.454.454v1.584a.454.454,0,0,0,.454.454h1.584a.454.454,0,0,0,.454-.454v-1.584Z" transform="translate(-294.944 -336.336)"/><path class="a" d="M26.79,54.153v2.964a2.4,2.4,0,0,1-2.377,2.419h-1.5a2.408,2.408,0,0,1-2.391-2.419V54.142H13.766v2.974a2.408,2.408,0,0,1-2.39,2.419h-1.5A2.4,2.4,0,0,1,7.5,57.116V54.153a2.185,2.185,0,0,0-2.089,2.194V73.715a2.185,2.185,0,0,0,2.151,2.209H26.728a2.188,2.188,0,0,0,2.151-2.209V56.347A2.185,2.185,0,0,0,26.79,54.153Zm-.7,18.481a.94.94,0,0,1-.93.949H9.085a.94.94,0,0,1-.93-.949V63.662a.94.94,0,0,1,.93-.95H25.164a.94.94,0,0,1,.93.95v8.971Z" transform="translate(-5.411 -51.924)"/><path class="a" d="M80.229,5.324h1.236a.679.679,0,0,0,.679-.679V.679A.679.679,0,0,0,81.465,0H80.229a.679.679,0,0,0-.679.679V4.645A.679.679,0,0,0,80.229,5.324Z" transform="translate(-75.812)"/><path class="a" d="M345.137,5.324h1.236a.679.679,0,0,0,.679-.679V.679A.679.679,0,0,0,346.373,0h-1.236a.679.679,0,0,0-.679.679V4.645A.679.679,0,0,0,345.137,5.324Z" transform="translate(-327.364)"/></g></svg>