<svg xmlns="http://www.w3.org/2000/svg" xmlns:xlink="http://www.w3.org/1999/xlink" width="51.848" height="55.37" viewBox="0 0 51.848 55.37"><defs><style>.a{fill:#b5ff88;}.b{filter:url(#a);}</style><filter id="a" x="0" y="0" width="51.848" height="55.37" filterUnits="userSpaceOnUse"><feOffset input="SourceAlpha"/><feGaussianBlur stdDeviation="6" result="b"/><feFlood flood-color="#ceffa3" flood-opacity="0.671"/><feComposite operator="in" in2="b"/><feComposite in="SourceGraphic"/></filter></defs><g class="b" transform="matrix(1, 0, 0, 1, 0, 0)"><path class="a" d="M52.01,9.19a1.274,1.274,0,0,0-.936-.385h-.44V6.163a5.931,5.931,0,0,0-1.816-4.347,6.111,6.111,0,0,0-8.694,0,5.931,5.931,0,0,0-1.816,4.347V8.8h-.44a1.315,1.315,0,0,0-1.321,1.321v7.924a1.315,1.315,0,0,0,1.321,1.321H51.075A1.315,1.315,0,0,0,52.4,18.049V10.125A1.273,1.273,0,0,0,52.01,9.19ZM47.993,8.8H40.95V6.163a3.393,3.393,0,0,1,1.032-2.49,3.521,3.521,0,0,1,4.98,0,3.393,3.393,0,0,1,1.032,2.49Z" transform="translate(-18.55 18)"/></g></svg>