<svg xmlns="http://www.w3.org/2000/svg" width="32.393" height="32.393" viewBox="0 0 32.393 32.393"><defs><style>.a{fill:#454545;}</style></defs><g transform="translate(0 0)"><path class="a" d="M10.766,31.682,8.343,29.259a3.713,3.713,0,0,0,0-5.229,3.558,3.558,0,0,0-2.614-1.077A3.561,3.561,0,0,0,3.114,24.03l-2.4-2.422a2.483,2.483,0,0,1,0-3.48L18.148.711a2.484,2.484,0,0,1,3.479,0l2.4,2.4a3.56,3.56,0,0,0-1.077,2.615,3.558,3.558,0,0,0,1.077,2.615,3.713,3.713,0,0,0,5.229,0l2.423,2.4a2.484,2.484,0,0,1,0,3.479L14.246,31.682a2.483,2.483,0,0,1-3.48,0ZM17.783,5.9,5.9,17.782a1.208,1.208,0,0,0,0,1.731l6.959,6.959a1.253,1.253,0,0,0,1.73,0l11.881-11.88a1.207,1.207,0,0,0,0-1.73L19.513,5.9a1.254,1.254,0,0,0-1.731,0ZM7.653,18.648l11-11,6.075,6.075-11,11Z" transform="translate(0 0)"/></g></svg>