<svg xmlns="http://www.w3.org/2000/svg" width="27.929" height="25.381" viewBox="0 0 27.929 25.381"><defs><style>.a{fill:#ffeda0;}</style></defs><g transform="translate(0 0)"><path class="a" d="M2.968,24.615.008,7.471A.939.939,0,0,1,.766,6.424l3.573-.613L5.35,5.63l4.981-.866L13.4,4.223a.938.938,0,0,1,1.047.758l2.743,15.736.217,1.336v.072a.9.9,0,0,1-.036.4.938.938,0,0,1-.722.686L4.014,25.373a.962.962,0,0,1-.125.008A.939.939,0,0,1,2.968,24.615Zm20.717-2.238-2.274-.433-.108-.722H22.89a.938.938,0,0,0,.938-.938V2.779l3.357.614a.938.938,0,0,1,.722,1.119l-3.14,17.144a.937.937,0,0,1-1.083.722Zm-3.97-3.1-3-17.325a.938.938,0,0,0-1.047-.758L12.063,1.8l-5.269.938V.938A.938.938,0,0,1,7.732,0H20.545a.938.938,0,0,1,.9.938v17.4a.938.938,0,0,1-.938.938Z" transform="translate(0 0)"/></g></svg>