<svg xmlns="http://www.w3.org/2000/svg" width="21.473" height="21.473" viewBox="0 0 21.473 21.473"><defs><style>.a{fill:#383838;}</style></defs><path class="a" d="M-9215-806.528a2,2,0,0,1-2-2v-13a2,2,0,0,1,2-2h13a2,2,0,0,1,2,2v13a2,2,0,0,1-2,2Zm.832-9.852a.78.78,0,0,0-.233.567v1.605a.776.776,0,0,0,.233.567.78.78,0,0,0,.569.234h3.475v3.477a.772.772,0,0,0,.233.567.779.779,0,0,0,.569.234h1.6a.779.779,0,0,0,.569-.234.776.776,0,0,0,.233-.567v-3.477h3.475a.775.775,0,0,0,.566-.234.772.772,0,0,0,.233-.567v-1.605a.772.772,0,0,0-.233-.567.775.775,0,0,0-.566-.234h-3.475v-3.474a.777.777,0,0,0-.233-.569.782.782,0,0,0-.569-.234h-1.6a.782.782,0,0,0-.569.234.774.774,0,0,0-.233.569v3.474h-3.475A.78.78,0,0,0-9214.167-816.38Zm16.556,5.38v-12.919a2,2,0,0,0-2-2h-12.921V-826a2,2,0,0,1,2-2h13a2,2,0,0,1,2,2v13a2,2,0,0,1-2,2Z" transform="translate(9217 828.001)"/></svg>