<svg xmlns="http://www.w3.org/2000/svg" width="17.088" height="23.762" viewBox="0 0 17.088 23.762"><defs><style>.a{fill:#383838;}</style></defs><path class="a" d="M10.149,23.517l-.5-.5a.844.844,0,0,1,0-1.187l3.217-3.224H2.634l.024.005a.85.85,0,0,1-.86-.826v-.708a.866.866,0,0,1,.848-.858H12.9L9.649,12.977a.8.8,0,0,1-.244-.58.829.829,0,0,1,.244-.59l.5-.5a.838.838,0,0,1,1.182,0l5.513,5.512a.843.843,0,0,1,0,1.186l-5.513,5.513a.837.837,0,0,1-1.182,0ZM5.757,12.455.244,6.943a.843.843,0,0,1,0-1.186L5.757.244a.837.837,0,0,1,1.182,0l.5.5a.844.844,0,0,1,0,1.187L4.223,5.156H14.454l-.024-.005a.85.85,0,0,1,.86.826v.708a.866.866,0,0,1-.848.858H4.187l3.253,3.242a.8.8,0,0,1,.244.58.829.829,0,0,1-.244.59l-.5.5a.838.838,0,0,1-1.182,0Z"/></svg>