<svg id="Component_265_3" data-name="Component 265 – 3" xmlns="http://www.w3.org/2000/svg" xmlns:xlink="http://www.w3.org/1999/xlink" width="15" height="15" viewBox="0 0 15 15">
  <defs>
    <radialGradient id="radial-gradient" cx="0.5" cy="0.5" r="0.5" gradientUnits="objectBoundingBox">
      <stop offset="0" stop-color="#ddffbc"/>
      <stop offset="1" stop-color="#96ff2e"/>
    </radialGradient>
  </defs>
  <g id="Path_11157" data-name="Path 11157">
    <path d="M 7.5 14.5 C 3.64018988609314 14.5 0.5 11.35980987548828 0.5 7.5 C 0.5 3.64018988609314 3.64018988609314 0.5 7.5 0.5 C 11.35980987548828 0.5 14.5 3.64018988609314 14.5 7.5 C 14.5 11.35980987548828 11.35980987548828 14.5 7.5 14.5 Z" stroke="none"/>
    <path d="M 7.5 1 C 3.915889739990234 1 1 3.915889739990234 1 7.5 C 1 11.08411026000977 3.915889739990234 14 7.5 14 C 11.08411026000977 14 14 11.08411026000977 14 7.5 C 14 3.915889739990234 11.08411026000977 1 7.5 1 M 7.5 0 C 11.64213943481445 0 15 3.35785961151123 15 7.5 C 15 11.64213943481445 11.64213943481445 15 7.5 15 C 3.35785961151123 15 0 11.64213943481445 0 7.5 C 0 3.35785961151123 3.35785961151123 0 7.5 0 Z" stroke="none" fill="#b8ff72"/>
  </g>
  <g id="icon_add-dec_default" transform="translate(3.848 3.848)">
    <path id="icon_add-dec_default-2" data-name="icon_add-dec_default" d="M2.923,7.3V4.383H0V2.922H2.923V0H4.384V2.922H7.307V4.383H4.384V7.3Z" transform="translate(0 0)" fill="url(#radial-gradient)"/>
  </g>
</svg>
