<svg xmlns="http://www.w3.org/2000/svg" xmlns:xlink="http://www.w3.org/1999/xlink" width="57.473" height="57.473" viewBox="0 0 57.473 57.473"><defs><style>.a{fill:#b5ff88;}.b{filter:url(#a);}</style><filter id="a" x="0" y="0" width="57.473" height="57.473" filterUnits="userSpaceOnUse"><feOffset input="SourceAlpha"/><feGaussianBlur stdDeviation="6" result="b"/><feFlood flood-color="#ceffa3" flood-opacity="0.667"/><feComposite operator="in" in2="b"/><feComposite in="SourceGraphic"/></filter></defs><g class="b" transform="matrix(1, 0, 0, 1, 0, 0)"><path class="a" d="M-9215-806.528a2,2,0,0,1-2-2v-13a2,2,0,0,1,2-2h13a2,2,0,0,1,2,2v13a2,2,0,0,1-2,2Zm.832-9.852a.78.78,0,0,0-.233.567v1.605a.776.776,0,0,0,.233.567.78.78,0,0,0,.569.234h3.475v3.477a.772.772,0,0,0,.233.567.779.779,0,0,0,.569.234h1.6a.779.779,0,0,0,.569-.234.776.776,0,0,0,.233-.567v-3.477h3.475a.775.775,0,0,0,.566-.234.772.772,0,0,0,.233-.567v-1.605a.772.772,0,0,0-.233-.567.775.775,0,0,0-.566-.234h-3.475v-3.474a.777.777,0,0,0-.233-.569.782.782,0,0,0-.569-.234h-1.6a.782.782,0,0,0-.569.234.774.774,0,0,0-.233.569v3.474h-3.475A.78.78,0,0,0-9214.167-816.38Zm16.556,5.38v-12.919a2,2,0,0,0-2-2h-12.921V-826a2,2,0,0,1,2-2h13a2,2,0,0,1,2,2v13a2,2,0,0,1-2,2Z" transform="translate(9235 846)"/></g></svg>