<svg xmlns="http://www.w3.org/2000/svg" width="23.501" height="23.501" viewBox="0 0 23.501 23.501"><defs><style>.a{fill:#ffeda0;}</style></defs><path class="a" d="M23.034,9.013A1.546,1.546,0,0,0,21.9,8.546H14.955V1.6A1.546,1.546,0,0,0,14.488.467,1.546,1.546,0,0,0,13.352,0h-3.2A1.545,1.545,0,0,0,9.013.467,1.545,1.545,0,0,0,8.546,1.6V8.546H1.6a1.545,1.545,0,0,0-1.135.467A1.545,1.545,0,0,0,0,10.148v3.2a1.544,1.544,0,0,0,.467,1.135,1.545,1.545,0,0,0,1.135.467H8.546V21.9a1.595,1.595,0,0,0,1.6,1.6h3.2a1.595,1.595,0,0,0,1.6-1.6V14.955H21.9a1.6,1.6,0,0,0,1.6-1.6v-3.2A1.545,1.545,0,0,0,23.034,9.013Z"/></svg>