<svg xmlns="http://www.w3.org/2000/svg" width="15.848" height="19.37" viewBox="0 0 15.848 19.37"><defs><style>.a{opacity:0.4;}.b{fill:#b5ff88;}</style></defs><g class="a"><path class="b" d="M52.01,9.19a1.274,1.274,0,0,0-.936-.385h-.44V6.163a5.931,5.931,0,0,0-1.816-4.347,6.111,6.111,0,0,0-8.694,0,5.931,5.931,0,0,0-1.816,4.347V8.8h-.44a1.315,1.315,0,0,0-1.321,1.321v7.924a1.315,1.315,0,0,0,1.321,1.321H51.075A1.315,1.315,0,0,0,52.4,18.049V10.125A1.273,1.273,0,0,0,52.01,9.19ZM47.993,8.8H40.95V6.163a3.393,3.393,0,0,1,1.032-2.49,3.521,3.521,0,0,1,4.98,0,3.393,3.393,0,0,1,1.032,2.49Z" transform="translate(-36.548)"/></g></svg>