<svg xmlns="http://www.w3.org/2000/svg" xmlns:xlink="http://www.w3.org/1999/xlink" width="12.367" height="13.741" viewBox="0 0 12.367 13.741"><defs><style>.a{fill:url(#a);}.b{clip-path:url(#b);}</style><radialGradient id="a" cx="0.5" cy="0.5" r="0.5" gradientUnits="objectBoundingBox"><stop offset="0" stop-color="#feffed"/><stop offset="1" stop-color="#ffce00"/></radialGradient><clipPath id="b"><rect class="a" width="12.367" height="13.741" transform="translate(0 0)"/></clipPath></defs><g class="b" transform="translate(0 0)"><g transform="translate(0.35 0)"><g transform="translate(0)"><path class="a" d="M44.09,13.741a1.378,1.378,0,0,0,1.374-1.374H42.716A1.378,1.378,0,0,0,44.09,13.741Zm4.466-4.122V5.84a4.421,4.421,0,0,0-3.435-4.329V1.031a1.031,1.031,0,1,0-2.061,0v.481A4.421,4.421,0,0,0,39.624,5.84V9.619L38.25,10.993v.687H49.93v-.687Z" transform="translate(-38.25)"/></g></g></g></svg>