<svg xmlns="http://www.w3.org/2000/svg" xmlns:xlink="http://www.w3.org/1999/xlink" width="12.367" height="13.741" viewBox="0 0 12.367 13.741"><defs><style>.a{fill:url(#a);}</style><radialGradient id="a" cx="0.5" cy="0.5" r="0.704" gradientTransform="matrix(1.111, 0, 0, 1, -0.056, 0)" gradientUnits="objectBoundingBox"><stop offset="0" stop-color="#00f6ff"/><stop offset="1" stop-color="#004f52"/></radialGradient></defs><path class="a" d="M31.34,13.741a1.378,1.378,0,0,0,1.374-1.374H29.966A1.378,1.378,0,0,0,31.34,13.741Zm4.466-7.9a4.421,4.421,0,0,0-3.435-4.329V1.031a1.031,1.031,0,1,0-2.061,0v.481a3.973,3.973,0,0,0-.962.344l6.458,6.458ZM35.6,11.68l1.374,1.374.893-.893L26.393.687,25.5,1.58l1.993,1.993a4.324,4.324,0,0,0-.618,2.267V9.619L25.5,10.993v.687Z" transform="translate(-25.5 0)"/></svg>