<svg xmlns="http://www.w3.org/2000/svg" viewBox="0 0 27.629 29.328"><defs><style>.a{fill:#004a54;}</style></defs><g transform="translate(13.814 14.664)"><g transform="translate(-13.814 -14.664)"><path class="a" d="M114.165,381.13l-3.462,6.586-.183.348h7.332l-3.666-6.975Z" transform="translate(-104.037 -358.737)"/><path class="a" d="M2.956,308.027l-.139-.427-.177.543L0,316.271a5.568,5.568,0,0,0,4.723,2.614h1.76l-.083-.257Z" transform="translate(0 -289.558)"/><path class="a" d="M239.207,381.13l-.021-.04-3.666,6.975h7.332l-.183-.348Z" transform="translate(-221.706 -358.737)"/><path class="a" d="M364.186,307.6l-.139.427-3.444,10.6-.083.257h1.76A5.568,5.568,0,0,0,367,316.271l-2.64-8.128Z" transform="translate(-339.374 -289.558)"/><path class="a" d="M114.165,6.934l.021.04L117.852,0H110.52l.183.348Z" transform="translate(-104.037 0)"/><path class="a" d="M239.207,6.934,242.669.348,242.852,0H235.52l3.666,6.975Z" transform="translate(-221.706 0)"/><path class="a" d="M2.817,11.285l.139-.427L6.4.257,6.483,0H4.723A5.568,5.568,0,0,0,0,2.614l2.64,8.128Z" transform="translate(0 0)"/><path class="a" d="M364.047,10.858l.139.427.177-.543L367,2.614A5.568,5.568,0,0,0,362.28,0h-1.76l.083.257Z" transform="translate(-339.374 0)"/></g></g></svg>