<svg xmlns="http://www.w3.org/2000/svg" xmlns:xlink="http://www.w3.org/1999/xlink" width="53.088" height="59.762" viewBox="0 0 53.088 59.762"><defs><style>.a{fill:#b5ff88;}.b{filter:url(#a);}</style><filter id="a" x="0" y="0" width="53.088" height="59.762" filterUnits="userSpaceOnUse"><feOffset input="SourceAlpha"/><feGaussianBlur stdDeviation="6" result="b"/><feFlood flood-color="#ceffa3" flood-opacity="0.671"/><feComposite operator="in" in2="b"/><feComposite in="SourceGraphic"/></filter></defs><g class="b" transform="matrix(1, 0, 0, 1, 0, 0)"><path class="a" d="M10.149,23.517l-.5-.5a.844.844,0,0,1,0-1.187l3.217-3.224H2.634l.024.005a.85.85,0,0,1-.86-.826v-.708a.866.866,0,0,1,.848-.858H12.9L9.649,12.977a.8.8,0,0,1-.244-.58.829.829,0,0,1,.244-.59l.5-.5a.838.838,0,0,1,1.182,0l5.513,5.512a.843.843,0,0,1,0,1.186l-5.513,5.513a.837.837,0,0,1-1.182,0ZM5.757,12.455.244,6.943a.843.843,0,0,1,0-1.186L5.757.244a.837.837,0,0,1,1.182,0l.5.5a.844.844,0,0,1,0,1.187L4.223,5.156H14.454l-.024-.005a.85.85,0,0,1,.86.826v.708a.866.866,0,0,1-.848.858H4.187l3.253,3.242a.8.8,0,0,1,.244.58.829.829,0,0,1-.244.59l-.5.5a.838.838,0,0,1-1.182,0Z" transform="translate(18 18)"/></g></svg>