<svg xmlns="http://www.w3.org/2000/svg" width="20" height="16.612" viewBox="0 0 20 16.612"><defs><style>.a{opacity:0.5;}.b{fill:#fff;}</style></defs><g class="a" transform="translate(0 -41.674)"><g transform="translate(0 41.674)"><path class="b" d="M18.876,48.412l.031.007H5.524L9.731,44.2a1.1,1.1,0,0,0,0-1.553l-.655-.655a1.1,1.1,0,0,0-1.546,0L.319,49.2a1.1,1.1,0,0,0,0,1.551l7.212,7.212a1.1,1.1,0,0,0,1.546,0l.655-.655a1.083,1.083,0,0,0,.319-.773,1.051,1.051,0,0,0-.319-.758l-4.255-4.24H18.891A1.133,1.133,0,0,0,20,50.419v-.926A1.112,1.112,0,0,0,18.876,48.412Z" transform="translate(0 -41.674)"/></g></g></svg>