<svg xmlns="http://www.w3.org/2000/svg" xmlns:xlink="http://www.w3.org/1999/xlink" width="31.014" height="47" viewBox="0 0 31.014 47"><defs><style>.a{fill:#ceffa3;}.b{filter:url(#a);}</style><filter id="a" x="0" y="0" width="31.014" height="47" filterUnits="userSpaceOnUse"><feOffset dy="3" input="SourceAlpha"/><feGaussianBlur stdDeviation="3" result="b"/><feFlood flood-color="#ceffa3" flood-opacity="0.671"/><feComposite operator="in" in2="b"/><feComposite in="SourceGraphic"/></filter></defs><g class="b" transform="matrix(1, 0, 0, 1, 0, 0)"><path class="a" d="M-9209.557-3390.011l3.148,3.569-1.52-4.51,3.941,1.328v3.375l-6.507,7.249Zm-7.443,3.761v-3.375l3.941-1.328-1.518,4.51,3.144-3.569.939,11.01Zm10.011-6.327,3-.4v3.049Zm-10.011-.4,3,.4-3,2.644Zm10.011-1.471,3-2.648v3.051ZM-9217-3397.1l3,2.648-3,.4Zm10.592-3.486-3.148,3.567-.937-10.98,6.507,7.25v3.343l-3.941,1.328Zm-10.592,3.178v-3.343l6.507-7.25-.939,10.98-3.144-3.567,1.518,4.506Z" transform="translate(9226 3414)"/></g></svg>