<svg xmlns="http://www.w3.org/2000/svg" width="16.498" height="16.498" viewBox="0 0 16.498 16.498"><defs><style>.a{opacity:0.5;}.b{fill:#fff;}</style></defs><g class="a"><path class="b" d="M16.17,6.327a1.085,1.085,0,0,0-.8-.328H10.5V1.125a1.085,1.085,0,0,0-.328-.8A1.085,1.085,0,0,0,9.374,0H7.124a1.085,1.085,0,0,0-.8.328,1.085,1.085,0,0,0-.328.8V6H1.125a1.085,1.085,0,0,0-.8.328,1.084,1.084,0,0,0-.328.8v2.25a1.084,1.084,0,0,0,.328.8,1.085,1.085,0,0,0,.8.328H6v4.875A1.12,1.12,0,0,0,7.124,16.5h2.25A1.12,1.12,0,0,0,10.5,15.373V10.5h4.874A1.12,1.12,0,0,0,16.5,9.374V7.124A1.084,1.084,0,0,0,16.17,6.327Z"/></g></svg>