<svg xmlns="http://www.w3.org/2000/svg" xmlns:xlink="http://www.w3.org/1999/xlink" width="4.001" height="15.25" viewBox="0 0 4.001 15.25"><defs><style>.a{fill:none;}.b{opacity:0.5;clip-path:url(#a);}.c{fill:#b5ff88;}</style><clipPath id="a"><rect class="a" width="4.001" height="15.25"/></clipPath></defs><g class="b"><path class="c" d="M-1436,13.25a2,2,0,0,1,2-2,2,2,0,0,1,2,2,2,2,0,0,1-2,2A2,2,0,0,1-1436,13.25Zm0-5.625a2,2,0,0,1,2-2,2,2,0,0,1,2,2,2,2,0,0,1-2,2A2,2,0,0,1-1436,7.625ZM-1436,2a2,2,0,0,1,2-2,2,2,0,0,1,2,2,2,2,0,0,1-2,2A2,2,0,0,1-1436,2Z" transform="translate(1436)"/></g></svg>