<svg xmlns="http://www.w3.org/2000/svg" width="13.012" height="29" viewBox="0 0 13.012 29"><defs><style>.a{fill:#383838;}</style></defs><path class="a" d="M34.45,40.157l3,.4V37.51Z" transform="translate(-24.439 -26.61)"/><path class="a" d="M26.476,7.413l-1.52,4.507,3.94-1.328V7.25L22.39,0l.939,10.981Z" transform="translate(-15.884)"/><path class="a" d="M3.94,11.92,2.423,7.413l3.144,3.568L6.506,0,0,7.25v3.342Z"/><path class="a" d="M37.452,54.738V51.69l-3,.4Z" transform="translate(-24.439 -36.67)"/><path class="a" d="M0,37.51v3.051l3-.4Z" transform="translate(0 -26.61)"/><path class="a" d="M24.956,58.67l1.52,4.51-3.147-3.568-.939,11.01,6.506-7.25V60Z" transform="translate(-15.884 -41.622)"/><path class="a" d="M2.423,63.18,3.94,58.67,0,60v3.374l6.506,7.25-.939-11.01Z" transform="translate(0 -41.622)"/><path class="a" d="M3,52.094l-3-.4v3.048Z" transform="translate(0 -36.67)"/></svg>