<svg xmlns="http://www.w3.org/2000/svg" xmlns:xlink="http://www.w3.org/1999/xlink" width="300" height="153" viewBox="0 0 300 153"><defs><style>.a{fill:#fff;}.b{opacity:0.12;clip-path:url(#a);}.c{fill:#d800ff;}</style><clipPath id="a"><rect class="a" width="300" height="153" transform="translate(624 58)"/></clipPath></defs><g class="b" transform="translate(-624 -58)"><g transform="translate(664.373 23.31)"><path class="c" d="M162.687,10.884,148.1,30.026l-25.561,1.217L110.368,53.155l7.3-28.4,18.663-2.84,3.521-18.544A136.554,136.554,0,0,0,109.555,0C49.05,0,0,38.877,0,86.833c0,27.011,15.564,51.145,39.971,67.07l14.608,43.7,19.675,4.463L85,170.646,91.3,218.3l19.071,4.463,1.55-52.59L126.6,221.952l18.259-10.55,3.421-41.228,8.346,29.867,27.665-28,2.209-23.4c20.131-15.745,32.613-37.62,32.613-61.807C219.11,54.158,196.336,25.7,162.687,10.884ZM50.44,101.693s-35.783.606-16.982-45.486c0,0,28.5-1.213,45.486,15.768s17.588,28.5,26.079,27.9c0,0-12.13,3.639-21.834,0s-32.751,1.818-32.751,1.818Zm62.494,38.6s-17.207,6.883-28.219,19.272c0,0,15.142-31.661,28.219-37.856,0,0,21.337,17.207,23.4,27.531,0,0-15.143-6.884-23.4-8.949Zm55.737-38.6s-23.044-5.458-32.75-1.819-21.834,0-21.834,0c8.491.606,9.1-10.917,26.079-27.9s45.486-15.768,45.486-15.768c18.8,46.091-16.982,45.485-16.982,45.485Z" transform="translate(0 0)"/></g></g></svg>