<svg xmlns="http://www.w3.org/2000/svg" xmlns:xlink="http://www.w3.org/1999/xlink" width="300" height="153" viewBox="0 0 300 153"><defs><style>.a,.c{fill:#fff;}.a{opacity:0.365;}.b{opacity:0.12;clip-path:url(#a);}</style><clipPath id="a"><rect class="a" width="300" height="153" transform="translate(713 58)"/></clipPath></defs><g class="b" transform="translate(-713 -58)"><g transform="translate(717 9)"><path class="c" d="M292.644,146.384l-55.5-9.19a92.1,92.1,0,0,0-81.938-83.5L146.322,0l-8.854,53.5a92.09,92.09,0,0,0-83.975,84.027L0,146.384l53.7,8.892a92.1,92.1,0,0,0,83.477,81.867l9.148,54.883,9.181-55.081a92.108,92.108,0,0,0,81.431-81.336Zm-59.034-9.775-45.5-7.534,21.366-44.949a88.436,88.436,0,0,1,24.132,52.483ZM208.6,83.219l-44.967,21.375L155.8,57.244A88.516,88.516,0,0,1,208.6,83.219ZM136.884,57.031l-7.872,47.564L82.7,82.58A88.476,88.476,0,0,1,136.884,57.031ZM82.519,82.763l22.014,46.311-47.507,7.867A88.473,88.473,0,0,1,82.519,82.763Zm-25.266,73.1,47.28,7.829L83.2,208.578A88.522,88.522,0,0,1,57.253,155.864ZM84.148,209.5l44.865-21.326,7.573,45.434A88.435,88.435,0,0,1,84.148,209.5ZM156.1,233.386l7.536-45.213,43.54,20.7A88.485,88.485,0,0,1,156.1,233.386Zm52.713-26.151-20.7-43.541,45.262-7.5a88.488,88.488,0,0,1-24.564,51.036Z" transform="translate(0 0)"/></g></g></svg>