<svg xmlns="http://www.w3.org/2000/svg" xmlns:xlink="http://www.w3.org/1999/xlink" width="300" height="153" viewBox="0 0 300 153"><defs><style>.a{fill:#fff;}.b{opacity:0.125;clip-path:url(#a);}.c{fill:#00f2ff;}</style><clipPath id="a"><rect class="a" width="300" height="153" transform="translate(332 58)"/></clipPath></defs><g class="b" transform="translate(-332 -58)"><g transform="translate(358.748 -13.512)"><path class="c" d="M229.307,124.78a35.22,35.22,0,0,0-5.9,2.648c-.288-.228-.576-.445-.869-.657Q225.891,125.7,229.307,124.78Z" transform="translate(-118.192 -119.837)"/><path class="c" d="M93.378,205.78a36.129,36.129,0,0,1-5.489,5.994Q90.551,208.7,93.378,205.78Z" transform="translate(-51.052 -159.901)"/><path class="c" d="M242.034,121.83c-2.026.455-4.043.945-6.034,1.481A35.207,35.207,0,0,1,242.034,121.83Z" transform="translate(-124.883 -118.378)"/><path class="c" d="M111.242,170.44a34.528,34.528,0,0,1-.682,4.549A34.485,34.485,0,0,1,111.242,170.44Z" transform="translate(-62.265 -142.421)"/><path class="c" d="M93.378,205.78a36.129,36.129,0,0,1-5.489,5.994Q90.551,208.7,93.378,205.78Z" transform="translate(-51.052 -159.901)"/><path class="c" d="M111.242,170.44a34.528,34.528,0,0,1-.682,4.549A34.485,34.485,0,0,1,111.242,170.44Z" transform="translate(-62.265 -142.421)"/><path class="c" d="M243.633,199.051a34.859,34.859,0,0,0,.272-4.37,35.431,35.431,0,0,0-33.024-35.35A35.469,35.469,0,0,0,167.7,134.782a35.415,35.415,0,0,0-30.121-16.765,35.958,35.958,0,0,0-5.391.407c-.02.006-.035.006-.05.011-2.016.453-4.023.94-6,1.473l-.035.01a35.018,35.018,0,0,0-5.868,2.635c-.287-.226-.573-.443-.865-.654a35.437,35.437,0,0,0-55.631,20.979,34.324,34.324,0,0,1-.679,4.526q-.128,1.5-.131,3.032a35.282,35.282,0,0,0,.256,4.274q-3.123,2.881-6.064,5.939a35.928,35.928,0,0,1-5.461,5.964A150.16,150.16,0,0,0,193.89,412.239a92.8,92.8,0,0,1-2.182-179.417,35.438,35.438,0,1,0,51.925-33.771ZM131.159,393.88C-42.326,281.744,82.885,183.689,82.885,183.689-3.606,296.83,131.159,393.88,131.159,393.88c-145.828-131.244-9.051-212.705-9.051-212.705-102.582,106.1,9.051,212.705,9.051,212.705S22.543,273.7,150.268,204.808C150.268,204.808,56.737,285.264,131.159,393.88Z" transform="translate(-15 -114.999)"/></g></g></svg>