<svg xmlns="http://www.w3.org/2000/svg" xmlns:xlink="http://www.w3.org/1999/xlink" width="300" height="153" viewBox="0 0 300 153"><defs><style>.a{fill:#fff;}.b{opacity:0.12;clip-path:url(#a);}.c{fill:#a2a2a2;}</style><clipPath id="a"><rect class="a" width="300" height="153" transform="translate(697 58)"/></clipPath></defs><g class="b" transform="translate(-697 -58)"><g transform="translate(719.122 39.512)"><g transform="translate(0.001)"><path class="c" d="M255.348,200.209,246.3,191.13a9.023,9.023,0,0,0-12.588,0l-29.158-45.673,18.464-18.492c3.537-3.509,4.372-8.355,1.866-10.945l-12.5-12.5c-2.506-2.506-7.436-1.671-10.973,1.838l-6.21,6.238a40.6,40.6,0,0,1-6.934,26.234l-28.044-37.569,57.286-42.8L224.881,0,167.428,7.352,129,58.678,90.564,7.352,33.111,0l7.352,57.453,57.314,42.8L69.621,137.826a40.6,40.6,0,0,1-6.934-26.234l-6.238-6.238c-3.509-3.509-8.355-4.345-10.945-1.838L33,116.02c-2.506,2.506-1.671,7.436,1.838,10.945l18.492,18.492L24.283,191.018a9.023,9.023,0,0,0-12.588,0l-9.079,9.19a9.051,9.051,0,0,0,0,12.727l9.3,9.33a9.107,9.107,0,0,0,12.755,0l9.051-9.079a9.023,9.023,0,0,0,.139-12.671L79.424,171.44,97.916,189.9c3.509,3.537,8.355,4.372,10.945,1.866l12.5-12.5c2.506-2.506,1.671-7.436-1.866-10.945l-6.21-6.238a40.576,40.576,0,0,1-26.234-6.934L129,123.734l41.941,31.414a40.6,40.6,0,0,1-26.123,6.934l-6.238,6.238c-3.509,3.509-4.345,8.355-1.838,10.945l12.5,12.5c2.506,2.506,7.436,1.671,10.945-1.866l18.492-18.464,45.45,29.075a9.023,9.023,0,0,0,0,12.588l9.079,9.079a9.051,9.051,0,0,0,12.727,0l9.3-9.33A9.023,9.023,0,0,0,255.348,200.209Z" transform="translate(-0.001)"/></g></g></g></svg>