<svg xmlns="http://www.w3.org/2000/svg" xmlns:xlink="http://www.w3.org/1999/xlink" width="300" height="153" viewBox="0 0 300 153"><defs><style>.a{fill:#fff;}.b{opacity:0.12;clip-path:url(#a);}.c{fill:#2aff00;}</style><clipPath id="a"><rect class="a" width="300" height="153" transform="translate(599 58)"/></clipPath></defs><g class="b" transform="translate(-599 -58)"><g transform="translate(619.073 39.336)"><path class="c" d="M210.742,85.047s-4.553.621-10.867.825q-1.571.911-3.259,1.848A407.627,407.627,0,0,0,161.9,109.387c10.624,8.568,23.369,29.856,23.156,82.685,0,0-6.368-52.682-40.707-69.825-10.575,8.157-20.429,16.511-29.545,24.827,13.913,43.334-4.762,80.208-4.976,80.626,6.486-42.681-1.686-61.084-7.769-68.574-44.513,43.612-68.116,83.056-68.581,83.837a708.471,708.471,0,0,1,42.88-75.453q7.363-11.341,14.77-21.472c-14.03-18.356-51.2-5-51.545-4.871,25.069-19.9,49.092-10.486,58.942-5.008a440.4,440.4,0,0,1,28.962-33.983C122.846,75.263,85.8,75.942,85.8,75.942c23.551-10.522,44.454,4.78,53.987,13.763,8.147-7.905,15.765-14.612,22.591-20.216q-.029-.666,0-1.367s-40.214-62.739-101.3-4.581c0,0-38.941,45.941-34.742,107.025S0,265.247,0,265.247s65.03,9.926,183.763-44.286S238.23,83.52,210.742,85.047Z" transform="translate(0 -33.888)"/><path class="c" d="M1429.327,38.306s0-21.38,33.594-17.307c0,0-8.656-22.907-32.574-20.871,0,0,5.6,28.506-25.2,31.051C1405.147,31.18,1401.837,45.942,1429.327,38.306Z" transform="translate(-1226.22 0)"/></g></g></svg>