<svg xmlns="http://www.w3.org/2000/svg" xmlns:xlink="http://www.w3.org/1999/xlink" width="300" height="153" viewBox="0 0 300 153"><defs><style>.a{fill:#fff;}.b{opacity:0.12;clip-path:url(#a);}.c{opacity:0.997;}.d{fill:#ff8900;}</style><clipPath id="a"><rect class="a" width="300" height="153" transform="translate(644 58)"/></clipPath></defs><g class="b" transform="translate(-644 -58)"><g class="c" transform="translate(678.388 -73.536)"><g transform="translate(2.528 3.826)"><path class="d" d="M448.078,148.683S417.714,125,428.668,81.35,408.134,0,408.134,0c11.4,23.786,16.3,24.456,2.255,77.766C396.8,129.321,448.078,148.683,448.078,148.683Z" transform="translate(-317.08)"/><path class="d" d="M818.035,334.071c7.137,27.432,23.2,34.792,23.2,34.792s-13.606-9.813-6.69-34.792c10.052-36.318-3.122-54.42-3.122-54.42C838.554,300.171,812.976,314.624,818.035,334.071Z" transform="translate(-635.07 -217.281)"/><path class="d" d="M213.3,344.173c.264,15.307-7.75,29.051-25.7,39.757,19.726-35.417-7.987-85.576-31.933-98.486-39.161-21.115-25.47-56.492-25.47-56.492-25.735,24.225,4.892,34.6,23.193,86.75,12.72,36.249-6.914,58.7-27.017,69.2,19.969-21.581,17.354-54.013-8.976-63.035-17.01-5.829-66.017-36.131-48.843-60.664s13.6-61.556,13.6-61.556c0,27.209-44.606,39.253-47.059,64.232s34.569,34.792,40.814,57.1-18.063,38.885-36.8,45.5C20.154,373.167,2.276,379.924.081,416.434c-2.453,40.814,51.743,45.052,66.909,57.1s11.6,22.3,11.6,22.3c5.748-5.389,8.6-6.726,17.887-6.577,15.367,3.629,60.887,10.884,101.657-17.51C248.089,436.952,213.3,344.173,213.3,344.173ZM100.89,482.451s3.122-14.051-16.727-4.014c0,0,4.461-26.094-12.713-42.822s-28.994-42.375-11.374-48.174,41.483-5.353,43.491-26.763c0,0,8.475,38.138-8.7,53.526s3.345,31.447,3.345,31.447a16.257,16.257,0,0,1,4.684,11.375v3.568s20.878,2.22,19.4-16.95c-3.345-43.491,12.936-64.232,48.174-67.578,0,0-37.031,8.316-42.152,68.916-1.338,15.835,7.583,11.152-3.345,26.095,0,0,40.814-12.713,55.534-41.483,0,0,5.353,63.34-79.621,52.857Z" transform="translate(0 -155.122)"/></g></g></g></svg>