<svg xmlns="http://www.w3.org/2000/svg" xmlns:xlink="http://www.w3.org/1999/xlink" viewBox="0 0 400 400"><defs><style>.cls-1{fill:none;}.cls-2{isolation:isolate;}.cls-3{fill:url(#linear-gradient);}.cls-4{fill:#40124a;}.cls-5{opacity:0.86;mix-blend-mode:overlay;}.cls-6{fill:url(#radial-gradient);}.cls-7{fill:url(#radial-gradient-2);}.cls-8{fill:url(#radial-gradient-3);}.cls-9{fill:url(#radial-gradient-4);}.cls-10{fill:url(#radial-gradient-5);}.cls-11{fill:url(#radial-gradient-6);}.cls-12{fill:url(#radial-gradient-7);}.cls-13{fill:url(#radial-gradient-8);}.cls-14{fill:url(#radial-gradient-9);}.cls-15{fill:url(#radial-gradient-10);}.cls-16{fill:url(#linear-gradient-2);}.cls-17{fill:#df8e00;}.cls-18{fill:url(#linear-gradient-3);}.cls-19{clip-path:url(#clip-path);}.cls-20{fill:url(#linear-gradient-4);}</style><linearGradient id="linear-gradient" x1="209.81" y1="346.57" x2="209.81" y2="57.63" gradientUnits="userSpaceOnUse"><stop offset="0.01" stop-color="#672b94"/><stop offset="0.28" stop-color="#7d3fae"/><stop offset="0.87" stop-color="#b673f0"/><stop offset="1" stop-color="#c37fff"/></linearGradient><radialGradient id="radial-gradient" cx="121.94" cy="142.46" r="28.23" gradientUnits="userSpaceOnUse"><stop offset="0" stop-color="#3f71ff"/><stop offset="0.13" stop-color="#4675ff"/><stop offset="0.33" stop-color="#5982ff"/><stop offset="0.55" stop-color="#7796ff"/><stop offset="0.8" stop-color="#a2b2ff"/><stop offset="1" stop-color="#c9ccff"/></radialGradient><radialGradient id="radial-gradient-2" cx="188.74" cy="128.15" r="50.89" xlink:href="#radial-gradient"/><radialGradient id="radial-gradient-3" cx="261.5" cy="134.91" r="64.81" xlink:href="#radial-gradient"/><radialGradient id="radial-gradient-4" cx="306.83" cy="170.69" r="30.62" xlink:href="#radial-gradient"/><radialGradient id="radial-gradient-5" cx="268.26" cy="232.32" r="62.03" xlink:href="#radial-gradient"/><radialGradient id="radial-gradient-6" cx="267.27" cy="294.15" r="39.96" xlink:href="#radial-gradient"/><radialGradient id="radial-gradient-7" cx="213.79" cy="232.32" r="81.11" xlink:href="#radial-gradient"/><radialGradient id="radial-gradient-8" cx="159.32" cy="273.67" r="46.52" xlink:href="#radial-gradient"/><radialGradient id="radial-gradient-9" cx="140.83" cy="199.91" r="47.12" xlink:href="#radial-gradient"/><radialGradient id="radial-gradient-10" cx="108.42" cy="247.43" r="26.24" xlink:href="#radial-gradient"/><linearGradient id="linear-gradient-2" x1="63.8" y1="249.53" x2="66.32" y2="400.86" gradientUnits="userSpaceOnUse"><stop offset="0" stop-color="#ffb64b"/><stop offset="0.28" stop-color="#ffd68a"/><stop offset="0.57" stop-color="#fff3c6"/><stop offset="0.71" stop-color="#ffd"/></linearGradient><linearGradient id="linear-gradient-3" x1="332.7" y1="171.05" x2="335.84" y2="359.31" gradientUnits="userSpaceOnUse"><stop offset="0" stop-color="#ffa83a"/><stop offset="0.45" stop-color="#ffd38a"/><stop offset="0.82" stop-color="#fff3c6"/><stop offset="1" stop-color="#ffd"/></linearGradient><clipPath id="clip-path"><circle class="cls-1" cx="676" cy="200" r="140"/></clipPath><linearGradient id="linear-gradient-4" x1="1987.62" y1="48.47" x2="2122.14" y2="48.47" gradientTransform="matrix(0, -1, 1.29, 0, 436, 2242.88)" gradientUnits="userSpaceOnUse"><stop offset="0" stop-color="#fff" stop-opacity="0.45"/><stop offset="0.23" stop-color="#fff" stop-opacity="0.36"/><stop offset="0.72" stop-color="#fff" stop-opacity="0.14"/><stop offset="1" stop-color="#fff" stop-opacity="0"/></linearGradient></defs><title>magic-attack</title><g class="cls-2"><g id="magic-attack"><path class="cls-3" d="M349.5,167.72A33.45,33.45,0,0,0,336.2,141,70.91,70.91,0,0,0,219,75.78a55.67,55.67,0,0,0-87.18,36.08,30.89,30.89,0,1,0-34.07,51.47,51.56,51.56,0,0,0-8.58,61.33,28.72,28.72,0,0,0,9.66,55.77,29.33,29.33,0,0,0,4.8-.41c0,.14,0,.27,0,.41A50.91,50.91,0,0,0,187,319.68a88.81,88.81,0,0,0,46.33,2.17,43.74,43.74,0,0,0,81.07-32.26,67.88,67.88,0,0,0,16.15-91.67A33.51,33.51,0,0,0,349.5,167.72Z"/><path class="cls-4" d="M349.35,167.72a33.32,33.32,0,0,0-13.3-26.52l-.12-.09,0-.15a70.16,70.16,0,0,0-77.35-81.69A69.07,69.07,0,0,0,237.89,65a72.63,72.63,0,0,0-18,11.76l-.81.71-.86-.62a54.38,54.38,0,0,0-25.36-9.77,49.18,49.18,0,0,0-6.86-.33l-3.44.15-.86,0-.85.11-1.7.23a57.88,57.88,0,0,0-6.75,1.32c-1.1.3-2.18.68-3.28,1l-1.64.53-1.58.66A54.55,54.55,0,0,0,144,87.08l-2.11,2.74c-.65,1-1.25,1.94-1.88,2.9-.31.49-.64,1-.92,1.47l-.8,1.53c-.51,1-1.13,2-1.56,3.08a59.66,59.66,0,0,0-4.12,13.2l-.25,1.26-1-.75a30.15,30.15,0,0,0-43,7.57A30.29,30.29,0,0,0,98,162.92l.53.31-.44.45A51.74,51.74,0,0,0,88.6,177a49.75,49.75,0,0,0-4.8,15.64A50.62,50.62,0,0,0,84.23,209a51.15,51.15,0,0,0,5.59,15.33l.42.74-.81.3a28.62,28.62,0,0,0-8.86,5.26,28.16,28.16,0,0,0-6.36,8.08,27.75,27.75,0,0,0,19.07,40.05l2.53.37c.85.09,1.71.09,2.56.14a25.47,25.47,0,0,0,5.08-.39l1.37-.23V280a49.85,49.85,0,0,0,7.73,26.68l.93,1.49,1.06,1.41c.72.92,1.36,1.91,2.15,2.77l2.37,2.59a14.63,14.63,0,0,0,1.26,1.23l1.3,1.17,1.31,1.18c.45.37.93.71,1.4,1.06,1,.69,1.86,1.43,2.83,2.07l3,1.81.75.46.79.38,1.58.75a56.24,56.24,0,0,0,6.51,2.6l3.4.87c.57.12,1.13.32,1.71.39l1.73.26,1.74.26a11.17,11.17,0,0,0,1.74.2l3.5.17a43,43,0,0,0,7-.35,49.34,49.34,0,0,0,25.36-11l.65-.54.82.26a88.71,88.71,0,0,0,22.61,4.05,87.23,87.23,0,0,0,22.9-1.94l1.21-.26.54,1.11A42.18,42.18,0,0,0,272.85,345a41.92,41.92,0,0,0,15.45-3,43.12,43.12,0,0,0,13.31-8.4,42.26,42.26,0,0,0,13.42-28,41.61,41.61,0,0,0-1.73-15.75l-.23-.78.63-.47a67.52,67.52,0,0,0,17.11-18.38A66.66,66.66,0,0,0,336.53,259,70.63,70.63,0,0,0,340,246.84a68,68,0,0,0-.15-25.28,66.2,66.2,0,0,0-9.56-23.48l-.18-.27.29-.14a33.35,33.35,0,0,0,19-29.95Zm.3,0a33.76,33.76,0,0,1-19,30.46l.12-.41a68.87,68.87,0,0,1,10.51,49.3,72.22,72.22,0,0,1-3.32,12.5,68.47,68.47,0,0,1-5.64,11.66,69.45,69.45,0,0,1-17.26,19.26l.4-1.25a42.93,42.93,0,0,1,2.07,16.61,44.92,44.92,0,0,1-44.66,42.23,45.25,45.25,0,0,1-41-25.55l1.75.85a90.47,90.47,0,0,1-23.72,2.05,89.4,89.4,0,0,1-23.43-4.27l1.47-.28a52.22,52.22,0,0,1-27,11.54,44.81,44.81,0,0,1-7.41.34l-3.71-.2a14.2,14.2,0,0,1-1.84-.21l-1.84-.29-1.83-.28c-.61-.09-1.2-.29-1.81-.43l-3.59-.94a59.38,59.38,0,0,1-6.87-2.77l-1.67-.81-.83-.41-.8-.48L125.63,324c-1-.68-2-1.47-3-2.19-.49-.38-1-.74-1.47-1.13l-1.37-1.25-1.37-1.25a14.71,14.71,0,0,1-1.32-1.3l-2.48-2.74c-.83-.92-1.51-2-2.26-2.94l-1.1-1.49-1-1.58A52.5,52.5,0,0,1,102.46,280l1.38,1.18a28.26,28.26,0,0,1-5.51.37c-.92-.06-1.85-.08-2.76-.18L92.83,281a29.65,29.65,0,0,1-13.3-51.53A30.48,30.48,0,0,1,88.94,224l-.39,1A52.06,52.06,0,0,1,83,209.21a52.16,52.16,0,0,1,4.69-32.67A52.39,52.39,0,0,1,97.42,163l.1.76a31.53,31.53,0,1,1,34.79-52.53l-1.26.51a61,61,0,0,1,4.06-13.66c.43-1.11,1-2.14,1.56-3.21l.81-1.59c.28-.53.62-1,.93-1.53.63-1,1.24-2,1.9-3l2.15-2.86A56.64,56.64,0,0,1,165,68.64l1.65-.71,1.7-.58c1.14-.37,2.27-.78,3.42-1.11a58.5,58.5,0,0,1,7-1.42l1.78-.25.89-.12.9,0,3.59-.17a50.62,50.62,0,0,1,7.18.31,56.81,56.81,0,0,1,26.63,10.14l-1.67.09A72,72,0,0,1,280.55,58a79,79,0,0,1,10.7,3.12,74.49,74.49,0,0,1,10.06,4.75,72.1,72.1,0,0,1,29.6,32.1A71.27,71.27,0,0,1,337,119.08a70.4,70.4,0,0,1-.54,22l-.09-.24a33.66,33.66,0,0,1,13.3,26.91Z"/><g class="cls-5"><circle class="cls-6" cx="121.94" cy="142.46" r="28.23"/><circle class="cls-7" cx="188.74" cy="128.15" r="50.89"/><circle class="cls-8" cx="261.5" cy="134.91" r="64.81"/><circle class="cls-9" cx="306.83" cy="170.69" r="30.62"/><circle class="cls-10" cx="268.26" cy="232.32" r="62.03"/><circle class="cls-11" cx="267.27" cy="294.15" r="39.96"/><circle class="cls-12" cx="213.79" cy="232.32" r="81.11"/><circle class="cls-13" cx="159.32" cy="273.67" r="46.52"/><circle class="cls-14" cx="140.83" cy="199.91" r="47.12"/><circle class="cls-15" cx="108.42" cy="247.43" r="26.24"/></g><path class="cls-16" d="M8.78,383.5,69,302.43,8.78,275,82.3,245a24.21,24.21,0,0,0-.12,2.42,26.08,26.08,0,0,0,6,16.71L70.13,275.4l51.81,27.7Z"/><path class="cls-17" d="M79.25,249.5a29.23,29.23,0,0,0,4.62,13.8l-15.33,9.55-4.4,2.75,4.58,2.45,47.53,25.41L22.49,370.08l49-65.86,2.21-3-3.38-1.54L16.35,275.19l62.9-25.69m3-4.49L8.78,275,69,302.43,8.78,383.5l113.16-80.4L70.13,275.4,88.2,264.14a26.08,26.08,0,0,1-6-16.71A24.21,24.21,0,0,1,82.3,245Z"/><path class="cls-18" d="M326.49,279.42l23,82.17-68.89-83.28-4.52-5.46L287,267.2l25.4-13.1,25-12.9-42.93-16.85q-.21-2.21-.54-4.35l98.25,23.27Z"/><path class="cls-17" d="M307.9,226.38l76.05,18L325,276.79,323,277.94l.64,2.29,19.2,68.55L282.92,276.4l-2.14-2.59,7.63-3.94,25.4-13.1,25-12.9,5.88-3-6.16-2.42-30.64-12M294,220q.33,2.15.54,4.35l42.93,16.85-25,12.9L287,267.2l-10.94,5.65,4.52,5.46,68.89,83.28-23-82.17,65.73-36.15L294,220Z"/><path class="cls-1" d="M287,267.2a80,80,0,0,1-6.42,11.11l-4.52-5.46Z"/></g><g id="ranged-attack_B" data-name="ranged-attack B"><g id="shine"><g class="cls-19"><ellipse class="cls-20" cx="498.56" cy="-5.24" rx="460.83" ry="260.5" transform="translate(173.59 372.89) rotate(-48.72)"/></g></g></g></g></svg>