<svg xmlns="http://www.w3.org/2000/svg" xmlns:xlink="http://www.w3.org/1999/xlink" viewBox="0 0 400 400"><defs><style>.cls-1{fill:none;}.cls-2{fill:url(#linear-gradient);}.cls-3{fill:#b3b3b3;}.cls-4{fill:url(#linear-gradient-2);}.cls-5{isolation:isolate;}.cls-6{clip-path:url(#clip-path);}.cls-7{opacity:0.7;fill:url(#linear-gradient-3);}.cls-18,.cls-7,.cls-9{mix-blend-mode:screen;}.cls-8{fill:url(#linear-gradient-4);}.cls-18,.cls-9{fill:#fff;}.cls-9{opacity:0.24;}.cls-10{clip-path:url(#clip-path-2);}.cls-11,.cls-12,.cls-13{fill:#a67c52;}.cls-12{opacity:0.75;}.cls-12,.cls-13{mix-blend-mode:multiply;}.cls-13{opacity:0.78;}.cls-14{clip-path:url(#clip-path-3);}.cls-15{fill:gray;}.cls-16{fill:#e6e6e6;}.cls-17{clip-path:url(#clip-path-4);}.cls-18{opacity:0.37;}.cls-19{fill:url(#linear-gradient-7);}.cls-20{fill:url(#linear-gradient-8);}.cls-21{fill:url(#linear-gradient-9);}.cls-22{fill:url(#linear-gradient-10);}.cls-23{fill:url(#linear-gradient-11);}.cls-24{clip-path:url(#clip-path-5);}.cls-25{fill:url(#linear-gradient-12);}</style><linearGradient id="linear-gradient" x1="1623.52" y1="105.08" x2="1632.33" y2="633.75" gradientTransform="translate(1668.95 -630.44) rotate(135)" gradientUnits="userSpaceOnUse"><stop offset="0" stop-color="#fff4cb"/><stop offset="0.17" stop-color="#faecbe"/><stop offset="0.47" stop-color="#ecd79c"/><stop offset="0.88" stop-color="#d6b566"/><stop offset="1" stop-color="#cfab55"/></linearGradient><linearGradient id="linear-gradient-2" x1="1649.69" y1="276.18" x2="1587.3" y2="251.71" gradientTransform="translate(1668.95 -630.44) rotate(135)" gradientUnits="userSpaceOnUse"><stop offset="0" stop-color="#3c0000"/><stop offset="0.07" stop-color="#4c0303"/><stop offset="0.53" stop-color="#ac1818"/><stop offset="0.85" stop-color="#e82525"/><stop offset="1" stop-color="#ff2a2a"/></linearGradient><clipPath id="clip-path"><path class="cls-1" d="M362.4,564.7c-60.94,10-120.21-12.93-161.9-56.2-41.69,43.27-101,66.23-161.9,56.2l-.1,0A433.12,433.12,0,0,0,44.78,624C75.3,795.09,200.5,832.5,200.5,832.5S325.7,795.09,356.22,624a433.12,433.12,0,0,0,6.28-59.32ZM315,624C297.16,758.62,200.5,787.5,200.5,787.5S103.84,758.62,86,624q-1.89-14.16-2.53-29.92l.64.1c43.81,7,86.38-9.56,116.36-40.68,30,31.12,72.55,47.7,116.36,40.68l.64-.1Q316.89,609.85,315,624Z"/></clipPath><linearGradient id="linear-gradient-3" x1="97.96" y1="537.13" x2="268.95" y2="640.62" gradientTransform="matrix(0.52, 0.66, -0.85, 0.4, 550.69, 275.38)" gradientUnits="userSpaceOnUse"><stop offset="0" stop-color="#fff" stop-opacity="0"/><stop offset="0.29" stop-color="#fff" stop-opacity="0.35"/><stop offset="0.54" stop-color="#fff" stop-opacity="0.63"/><stop offset="0.75" stop-color="#fff" stop-opacity="0.83"/><stop offset="0.91" stop-color="#fff" stop-opacity="0.95"/><stop offset="1" stop-color="#fff"/></linearGradient><linearGradient id="linear-gradient-4" x1="1611.28" y1="276.12" x2="1673.26" y2="249.61" xlink:href="#linear-gradient-2"/><clipPath id="clip-path-2"><polygon id="_Clipping_Path_" data-name="&lt;Clipping Path&gt;" class="cls-2" points="338.53 344.78 351.94 346.08 67.34 64.95 62.15 70.14 343.29 354.73 338.53 344.78"/></clipPath><clipPath id="clip-path-3"><path id="_Clipping_Path_2" data-name="&lt;Clipping Path&gt;" class="cls-3" d="M90.7,64.08S58.69,61.49,63,91.76c0,0-12.58-15.1-15.1-40.26C47.92,51.5,75.6,51.5,90.7,64.08Z"/></clipPath><clipPath id="clip-path-4"><polygon id="_Clipping_Path_3" data-name="&lt;Clipping Path&gt;" class="cls-4" points="396.05 337.43 382.61 327.44 369.24 328.78 379.38 325.04 363.75 313.43 352.8 317.54 361.92 312.06 337.5 293.92 303.93 306.72 341.13 343.92 396.05 337.43"/></clipPath><linearGradient id="linear-gradient-7" x1="101.01" y1="101.01" x2="298.99" y2="298.99" gradientUnits="userSpaceOnUse"><stop offset="0" stop-color="#c69c6d"/><stop offset="0.26" stop-color="#b08659"/><stop offset="0.8" stop-color="#774f28"/><stop offset="1" stop-color="#603813"/></linearGradient><linearGradient id="linear-gradient-8" x1="108.08" y1="108.08" x2="291.92" y2="291.92" gradientUnits="userSpaceOnUse"><stop offset="0" stop-color="#e6e6e6"/><stop offset="0.26" stop-color="#d0d0d0"/><stop offset="0.8" stop-color="#979797"/><stop offset="1" stop-color="gray"/></linearGradient><linearGradient id="linear-gradient-9" x1="132.82" y1="132.82" x2="267.18" y2="267.18" gradientUnits="userSpaceOnUse"><stop offset="0" stop-color="#b50000"/><stop offset="0.41" stop-color="#9f0000"/><stop offset="1" stop-color="#780000"/></linearGradient><linearGradient id="linear-gradient-10" x1="154.75" y1="154.75" x2="245.25" y2="245.25" xlink:href="#linear-gradient-8"/><linearGradient id="linear-gradient-11" x1="175.25" y1="175.25" x2="224.75" y2="224.75" xlink:href="#linear-gradient-9"/><clipPath id="clip-path-5"><circle class="cls-1" cx="200" cy="200" r="140"/></clipPath><linearGradient id="linear-gradient-12" x1="1511.62" y1="48.47" x2="1646.14" y2="48.47" gradientTransform="matrix(0, -1, 1.29, 0, -40, 1766.88)" gradientUnits="userSpaceOnUse"><stop offset="0" stop-color="#fff" stop-opacity="0.45"/><stop offset="0.23" stop-color="#fff" stop-opacity="0.36"/><stop offset="0.72" stop-color="#fff" stop-opacity="0.14"/><stop offset="1" stop-color="#fff" stop-opacity="0"/></linearGradient></defs><title>ranged-attack</title><g class="cls-5"><g id="defense"><g id="frame_copy_2" data-name="frame copy 2"><g class="cls-6"><ellipse class="cls-7" cx="143.72" cy="565.07" rx="268.28" ry="136.05" transform="translate(-413.28 392.71) rotate(-58.54)"/></g></g></g><g id="ranged-attack_B" data-name="ranged-attack B"><g id="arrow"><polygon class="cls-8" points="312.15 347.81 310.88 352.77 335.5 382.97 335.5 376.36 337.25 385.12 340.69 389.33 337.67 343.92 300.47 306.72 294.85 333.11 309.22 350.74 312.15 347.81"/><path class="cls-9" d="M334.64,370.3l-.87-26.81L303.5,313.21s-.87,11.25-3.46,17.3c0,0,14.7-19.89,9.51,9.52,0,0,19.9-19.9,9.52,13C319.07,353,331.18,327.05,334.64,370.3Z"/><polygon id="_Clipping_Path_4" data-name="&lt;Clipping Path&gt;" class="cls-2" points="338.53 344.78 351.94 346.08 67.34 64.95 62.15 70.14 343.29 354.73 338.53 344.78"/><g class="cls-10"><polyline class="cls-11" points="359.72 357.33 342.42 345.22 330.31 339.16 313.01 319.27 277.27 285.26 218.29 224.54 173.92 183.28 128.76 133.28 113.19 115.98 96.32 100.85 83.78 86.57 47.02 55.86"/><path class="cls-12" d="M79.45,70.14S71.67,72.73,70.8,84L56.1,67.54,63.88,58Z"/><ellipse class="cls-13" cx="279.5" cy="282.5" rx="41" ry="29" transform="translate(-113.11 220.99) rotate(-36.4)"/></g><path id="_Clipping_Path_5" data-name="&lt;Clipping Path&gt;" class="cls-3" d="M90.7,64.08S58.69,61.49,63,91.76c0,0-12.58-15.1-15.1-40.26C47.92,51.5,75.6,51.5,90.7,64.08Z"/><g class="cls-14"><path class="cls-15" d="M78.59,97S53.5,73.6,48.31,51.11h0s-2.59,19.89,2.6,51S78.59,97,78.59,97Z"/></g><ellipse class="cls-16" cx="67.34" cy="58.89" rx="3.06" ry="6.73" transform="translate(-12.83 98.58) rotate(-67.5)"/><polygon id="_Clipping_Path_6" data-name="&lt;Clipping Path&gt;" class="cls-4" points="396.05 337.43 382.61 327.44 369.24 328.78 379.38 325.04 363.75 313.43 352.8 317.54 361.92 312.06 337.5 293.92 303.93 306.72 341.13 343.92 396.05 337.43"/><g class="cls-17"><path class="cls-18" d="M291.1,308.31s28.54,6.05,45,0c0,0-48.44,13.84,8.65,10.38,0,0-44.12,16.43,13.84,8.65,0,0-55.36,13.84,14.71,7.78l-39.22,5.2-14.13-12.4-23.35-22.78Z"/></g></g><g id="Layer_20" data-name="Layer 20"><circle class="cls-19" cx="200" cy="200" r="140"/></g><circle class="cls-20" cx="200" cy="200" r="130"/><circle class="cls-21" cx="200" cy="200" r="95"/><circle class="cls-22" cx="200" cy="200" r="64"/><circle class="cls-23" cx="200" cy="200" r="35"/><g id="shine"><g class="cls-24"><ellipse class="cls-25" cx="22.56" cy="-5.24" rx="460.83" ry="260.5" transform="translate(11.62 15.17) rotate(-48.72)"/></g></g></g></g></svg>