<svg xmlns="http://www.w3.org/2000/svg" xmlns:xlink="http://www.w3.org/1999/xlink" viewBox="0 0 80 80"><defs><style>.a{fill:none;}.b{clip-path:url(#a);}.c{fill:#87bbc3;}</style><clipPath id="a"><rect class="a" width="80" height="80" transform="translate(1250 4137)"/></clipPath></defs><g class="b" transform="translate(-1250 -4137)"><g transform="translate(1254.923 4154)"><path class="c" d="M46.493.01,40.407,0C33.571,0,29.152,4.533,29.152,11.549v5.325H23.034a.957.957,0,0,0-.957.957v7.715a.957.957,0,0,0,.957.957h6.119V45.97a.957.957,0,0,0,.957.957h7.983a.957.957,0,0,0,.957-.957V26.5H46.2a.957.957,0,0,0,.957-.957l0-7.715a.958.958,0,0,0-.957-.957H39.049V12.36c0-2.17.517-3.271,3.343-3.271h4.1a.957.957,0,0,0,.956-.957V.967A.957.957,0,0,0,46.493.01Z" transform="translate(0)"/></g></g></svg>