<svg id="social_twitter" xmlns="http://www.w3.org/2000/svg" viewBox="0 0 80 80">
  <defs>
    <style>
      .cls-1 {
        fill: #87bbc3;
      }

      .cls-2 {
        fill: none;
      }
    </style>
  </defs>
  <g id="Group_21" data-name="Group 21" transform="translate(0 0)">
    <path id="Path_194" data-name="Path 194" class="cls-1" d="M66.5,30.788a19.135,19.135,0,0,1-5.5,1.512A9.645,9.645,0,0,0,65.222,27a19.084,19.084,0,0,1-6.1,2.32,9.573,9.573,0,0,0-16.55,6.552,9.941,9.941,0,0,0,.244,2.181,27.184,27.184,0,0,1-19.741-10,9.574,9.574,0,0,0,2.96,12.776,9.428,9.428,0,0,1-4.328-1.2v.117a9.6,9.6,0,0,0,7.675,9.4,9.877,9.877,0,0,1-2.519.325,9.674,9.674,0,0,1-1.809-.168A9.607,9.607,0,0,0,34,55.955a19.244,19.244,0,0,1-11.894,4.087,20.527,20.527,0,0,1-2.274-.127,27.1,27.1,0,0,0,14.68,4.3c17.6,0,27.234-14.585,27.234-27.23l-.029-1.24A19.289,19.289,0,0,0,66.5,30.79Zm0,0" transform="translate(-3.966 -5.26)"/>
    <rect id="Rectangle_57" data-name="Rectangle 57" class="cls-2" width="80" height="80"/>
  </g>
</svg>
