<svg xmlns="http://www.w3.org/2000/svg" xmlns:xlink="http://www.w3.org/1999/xlink" viewBox="0 0 80 80"><defs><style>.a{fill:#fff;stroke:#707070;}.b{clip-path:url(#a);}.c{fill:#87bbc3;}</style><clipPath id="a"><rect class="a" width="80" height="80" transform="translate(505 4282)"/></clipPath></defs><g class="b" transform="translate(-505 -4282)"><g transform="translate(490 4300)"><g transform="translate(36.001)"><path class="c" d="M71.551,12.054a.345.345,0,0,0-.344-.319H64.994V10.01a10.01,10.01,0,0,0-20.019,0v1.726H38.762a.345.345,0,0,0-.344.319L36,43.809a.346.346,0,0,0,.344.371H73.623a.345.345,0,0,0,.344-.371ZM47.736,10.01a7.248,7.248,0,1,1,14.5,0v1.726h-14.5ZM46.355,21.4A3.455,3.455,0,0,1,42.9,17.948a3.259,3.259,0,0,1,2.071-3.163v3.163a1.381,1.381,0,1,0,2.761,0V14.787a3.267,3.267,0,0,1,2.071,3.161A3.455,3.455,0,0,1,46.355,21.4Zm17.258,0a3.455,3.455,0,0,1-3.452-3.452,3.259,3.259,0,0,1,2.071-3.163v3.163a1.381,1.381,0,0,0,2.761,0V14.787a3.267,3.267,0,0,1,2.071,3.161A3.455,3.455,0,0,1,63.613,21.4Z" transform="translate(-36.001)"/></g></g></g></svg>