<svg xmlns="http://www.w3.org/2000/svg" xmlns:xlink="http://www.w3.org/1999/xlink" viewBox="0 0 80 80"><defs><style>.a{fill:none;}.b{clip-path:url(#a);}.c{fill:#87bbc3;}</style><clipPath id="a"><rect class="a" width="80" height="80" transform="translate(1206 4160)"/></clipPath></defs><g class="b" transform="translate(-1206 -4160)"><g transform="translate(1221 4158.6)"><path class="c" d="M.862,39.772l11.243,4.2,4.352,14a1.324,1.324,0,0,0,2.1.633l6.267-5.109a1.87,1.87,0,0,1,2.279-.064l11.3,8.207a1.325,1.325,0,0,0,2.076-.8L48.767,21a1.325,1.325,0,0,0-1.775-1.506L.849,37.292A1.326,1.326,0,0,0,.862,39.772Zm14.894,1.963L37.73,28.2a.383.383,0,0,1,.462.606L20.057,45.664a3.759,3.759,0,0,0-1.165,2.249l-.618,4.578a.568.568,0,0,1-1.109.08l-2.376-8.348A2.212,2.212,0,0,1,15.756,41.734Z" transform="translate(0)"/></g></g></svg>